<svg width="128" height="128" viewBox="0 0 128 128" fill="none" xmlns="http://www.w3.org/2000/svg">
  <rect width="128" height="128" fill="#181818"/>
  <g transform="translate(9 9)">
    <g stroke="#f2f2f2" stroke-width="5" stroke-linecap="round">
      <path d="M26 19L98 6"/>
      <path d="M26 19L61 33"/>
      <path d="M61 33L89 28"/>
      <path d="M89 28L98 6"/>
      <path d="M70 21L61 33"/>
      <path d="M70 21L89 28"/>
      <path d="M26 19L26 79"/>
      <path d="M35 38L61 33"/>
      <path d="M35 38L35 57"/>
      <path d="M35 57L26 71"/>
      <path d="M98 6L97 76"/>
      <path d="M89 28L90 43"/>
      <path d="M90 43L97 52"/>
    </g>
    <g fill="#f2f2f2">
      <circle cx="19" cy="91" r="15"/>
      <circle cx="83" cy="88" r="14"/>
      <circle cx="26" cy="19" r="5"/>
      <circle cx="98" cy="6" r="5"/>
      <circle cx="61" cy="33" r="4.5"/>
      <circle cx="89" cy="28" r="4.5"/>
      <circle cx="35" cy="38" r="4"/>
      <circle cx="35" cy="57" r="3.5"/>
      <circle cx="26" cy="71" r="3.5"/>
      <circle cx="90" cy="43" r="3.5"/>
      <circle cx="97" cy="52" r="3.5"/>
    </g>
    <circle cx="70" cy="21" r="6.5" fill="#da291c"/>
  </g>
</svg>
